PathFileType	4	(X/Y/Z)	20_2_87_p0_0-370.trc
DataRate	CameraRate	NumFrames	NumMarkers	Units	OrigDataRate	OrigDataStartFrame	OrigNumFrames
60.0	60.0	5	27	m	60.0	185	371
Frame#	Time	RHip			RKnee			RAnkle			RBigToe			RSmallToe			RHeel			LHip			LKnee			LAnkle			LBigToe			LSmallToe			LHeel			Neck			Head			Nose			RShoulder			RElbow			RWrist			RThumb			RIndex			RPinky			LShoulder			LElbow			LWrist			LThumb			LIndex			LPinky			
		X1	Y1	Z1	X2	Y2	Z2	X3	Y3	Z3	X4	Y4	Z4	X5	Y5	Z5	X6	Y6	Z6	X7	Y7	Z7	X8	Y8	Z8	X9	Y9	Z9	X10	Y10	Z10	X11	Y11	Z11	X12	Y12	Z12	X13	Y13	Z13	X14	Y14	Z14	X15	Y15	Z15	X16	Y16	Z16	X17	Y17	Z17	X18	Y18	Z18	X19	Y19	Z19	X20	Y20	Z20	X21	Y21	Z21	X22	Y22	Z22	X23	Y23	Z23	X24	Y24	Z24	X25	Y25	Z25	X26	Y26	Z26	X27	Y27	Z27	
185	3.0833333333333335	0.3531699157849035	0.4378328948401523	0.932473338865966	0.3378990252193872	0.6043869873991943	1.3378658689541634	0.32621928388621857	0.7612011678198439	1.7656477602364697	0.3291689590624743	0.643830825856933	1.8149877064978017	0.38025890136277996	0.6391576731243819	1.7955061640970937	0.3121717879106268	0.8715574421787751	1.8462565282850567	0.16803425687733503	0.496908595752971	0.9232949141863577	0.16242275032023473	0.6646163757464109	1.345966522411835	0.1561776752134614	0.7937915509426476	1.7698235706714172	0.1505639413980087	0.6000018068001184	1.7869835149584032	0.11087206307018754	0.620963528532077	1.7750517370822945	0.17405390786812783	0.8456539387119357	1.8158750432900914	0.2399287546225274	0.31346845358908093	0.3642232361668334	0.21738696139257502	0.2149564868928606	0.14391221600992912	0.236901772042509	0.16332461287803832	0.2735738520335387	0.39909684194421413	0.33901505586671044	0.4347812493594118	0.474210171370039	0.4715950061418596	0.6316938076621641	0.37363463202032127	0.2563645983337935	0.6368874132218025	0.2914602143429178	0.19915488771480205	0.7058365408963453	0.3014640596942957	0.15503194050925126	0.7071209893797488	0.3511847501924253	0.17045786626524279	0.7281596924942048	0.09313473302816386	0.37426084205029536	0.4530789414101146	0.05065568054610912	0.4254320547932706	0.6449746123086458	0.11779997086863386	0.22526615140419828	0.6622556648795195	0.18724755103208898	0.23661632404487343	0.7093670860309231	0.16997215626951928	0.1176218359310333	0.7246619191937178	0.13028320091614556	0.1734715007562824	0.7620078381307026
186	3.1	0.34811832680857885	0.43999463785753257	0.9323008295861296	0.3379891114409353	0.6038617086350202	1.337960772825	0.3249342373642062	0.7585681725564152	1.760511536154102	0.32903343164885507	0.6439050781783996	1.814862015994981	0.38010635082911526	0.6391152949199838	1.7953566337208884	0.3188942777797766	0.8849229170471662	1.8455740835097925	0.16352587682068104	0.5244821892535836	0.9277314111216141	0.15728819209604522	0.6651428430031903	1.35059573354378	0.15152618909763566	0.7938797015907582	1.7700325895371687	0.15814074413725088	0.6176002576192134	1.796589886964559	0.11902758453835145	0.6372872338922408	1.7815890460191957	0.1717655958249124	0.8506762821969306	1.8225420528807317	0.23586272275357406	0.3122088462354733	0.368021086479485	0.21017263390164725	0.22611655083899942	0.14517509073277776	0.23272179971837506	0.16244117880857054	0.2769268726625827	0.3954435007776917	0.3389453544869508	0.4348111466625532	0.47150146680304195	0.4858758148969177	0.6282350275467516	0.37332567118057813	0.25603404436581967	0.636798325954294	0.28818466602176557	0.21079326032830364	0.7062631619844169	0.2978379095840768	0.14611910598062156	0.7069154017704271	0.3392282037299859	0.17158349851172353	0.7323407875531226	0.0929706624845437	0.3743757476634983	0.4601409565559434	0.050203687987752016	0.42324434697973995	0.641648008017716	0.11024014539357158	0.22609124840820272	0.6625231946754733	0.1754666325924738	0.22598274707686106	0.7201092193245939	0.16193334009354135	0.11711148610578266	0.7280755706620209	0.11946908613756371	0.16283236355744518	0.7587723563906411
187	3.1166666666666667	0.34723337987484687	0.4419624313934226	0.9326276315067068	0.33972886004636793	0.5879234591303406	1.3219014517896601	0.32453507605748766	0.7602232333100746	1.7561097562354526	0.3285767238500761	0.6464381486701807	1.8111346601437321	0.37982174311329125	0.6392617877699134	1.7951695294458205	0.3167775906785769	0.8683943044059923	1.829578959992636	0.16704379442403272	0.5263541451836116	0.924751361620388	0.15615147886997086	0.6632310233881232	1.3416325976578358	0.15139941567552095	0.7943027843216555	1.7701016801314007	0.1582056150222109	0.6183965652637322	1.7969060617512496	0.11559392716270077	0.6586410396994969	1.7946155676511202	0.17225752117723891	0.8537908373964213	1.8238680200533748	0.23194736645118566	0.30073032456061854	0.36913633414917285	0.21011012245341543	0.22615376046322036	0.14921142908789778	0.2294564724767957	0.173625569533093	0.2756815993839268	0.39539787687186256	0.338919452191633	0.43491361072563517	0.4747185897899865	0.47606637921979594	0.6293036316902457	0.37317393831798573	0.255681247449938	0.6367774438983109	0.2813349751694925	0.22381958303023242	0.7102560883824096	0.2897938408077716	0.1360579565822561	0.7099278092647164	0.334612607212898	0.1717773467909967	0.741946107484381	0.0927835686073414	0.3759424493260398	0.46371381714422233	0.05083829802468405	0.4245356856157716	0.647455327552019	0.10595346774099233	0.2348586940611496	0.6658769549906793	0.17136635255549826	0.22602317462729526	0.7203095765323237	0.154619870049635	0.11707195839087818	0.7283554559433332	0.11965535731570204	0.16032005274894162	0.760889205694151
188	3.1333333333333333	0.3434678816466221	0.44154353865564216	0.9250474726863823	0.32833103392639523	0.5879535713171021	1.31769499747429	0.3246421354632712	0.760334579760933	1.756228604573923	0.3276064946618255	0.6162080480062161	1.799690320406018	0.3797606512955244	0.6393006973965847	1.7951569181088942	0.3230294937602683	0.8741153377385369	1.8361748476744069	0.16751512588009176	0.5256238113259383	0.9198353274703357	0.15692441709606664	0.6622206934308831	1.336392289136474	0.15129023899383356	0.7948183162162612	1.7702929064167392	0.15820233496992128	0.618257153627254	1.7968283652392683	0.11984319762528263	0.6423847362956436	1.7885087220466964	0.17278946407366966	0.8533176002241882	1.828820281426587	0.2320408110645722	0.30245107940932836	0.37257701552355327	0.2098763653825423	0.22695546846746278	0.1496554006188885	0.2225986809259866	0.15532672514489101	0.2846572577714469	0.3929936223558194	0.35323586810142577	0.4412256201638411	0.4749379652251368	0.47551928263637033	0.6290870052557525	0.3732339472134826	0.25575790986233826	0.6368502656337117	0.28398675639465876	0.21251079418166044	0.7128194677081393	0.29014170793281147	0.13727075779598696	0.712620679166582	0.33790193850539113	0.1722749658360019	0.7421559369534991	0.09294287010977952	0.377233384754311	0.4670490905038037	0.05028995185155885	0.42344905356566803	0.645151534508923	0.10218516633983511	0.23744050494114838	0.6629579660097908	0.17061303504778402	0.22747792427851127	0.7202040373833507	0.15490946180719103	0.1183803938762157	0.7318618135431043	0.10626849910263804	0.1701261873124042	0.7592297531710648
189	3.15	0.3426954909528935	0.44224628024968093	0.9361015096038082	0.32734978902439843	0.5885576517215864	1.326434827079464	0.32094836129836074	0.7752748452164349	1.7661547114429845	0.326784373162082	0.6134190594482524	1.7946388136830116	0.3798093365548445	0.6392189890140665	1.795160983568702	0.3194015280785495	0.889112188215802	1.8481366215510509	0.163168223919523	0.5251473792330974	0.9284994227706815	0.15612956432818362	0.663186607593002	1.3411725998842399	0.1502486785808216	0.7964487037414131	1.7748861696423726	0.1520853198344296	0.6122283921677942	1.7908832855134929	0.12288605871993437	0.6230728427288298	1.777074599608757	0.1721613590420109	0.8546616626488269	1.8319532344127505	0.22819214286824877	0.30167693820101676	0.37618827680071815	0.20978270052560619	0.22992054003327914	0.1558449101218404	0.21577792231125362	0.1553910209073269	0.2883256526365525	0.3929239680056707	0.3533213403854358	0.4412789669950856	0.4750017727985066	0.4748706989026015	0.6324422790313962	0.3731385184985658	0.25548955048134087	0.6369148533118723	0.2805635990737395	0.20274677160892907	0.7124945663464813	0.2863893814648051	0.1265583470929235	0.7094395929359566	0.3375974504283503	0.17225983135790568	0.7392244430717227	0.08933352295109281	0.3895158512195374	0.46665678789758175	0.05033361267569857	0.4213101444538612	0.6452830659508314	0.09826420903785275	0.23614994852404078	0.6631705549131507	0.1672628664247025	0.23848147803614236	0.7204141214216122	0.15094866840711688	0.12981704262436883	0.7350457176151651	0.10237733191416067	0.16643176167853752	0.7587023330071653
